# xmcd CD database file
#
# Track frame offsets:
#	150
#	20187
#	49939
#	50469
#	66928
#	99021
#	130223
#	165282
#	194695
#	218592
#	234425
#
# Disc length: 3855 seconds
#
# Revision: 0
# Processed by: cddbd v1.5.1PL2 Copyright (c) Steve Scherf et al.
# Submitted via: CDex 1.50
#
DISCID=940f0d0b
DTITLE=gidon kremer - hommage a astor piazolla
DYEAR=1900
DGENRE=Jazz
TTITLE0=milonga en re
TTITLE1=vardarito
TTITLE2=oblivion
TTITLE3=escualo
TTITLE4=cafe 1930
TTITLE5=cocerto para quinteto
TTITLE6=soledad
TTITLE7=buenos aires horea cero
TTITLE8=celos
TTITLE9=el sol sueno
TTITLE10=le grand tango
EXTD=
EXTT0=
EXTT1=
EXTT2=
EXTT3=
EXTT4=
EXTT5=
EXTT6=
EXTT7=
EXTT8=
EXTT9=
EXTT10=
PLAYORDER=
